<?xml version="1.0" encoding="utf-8"?>
<!-- Generator: Adobe Illustrator 26.3.1, SVG Export Plug-In . SVG Version: 6.00 Build 0)  -->
<svg version="1.1" id="Layer_1" xmlns="http://www.w3.org/2000/svg" xmlns:xlink="http://www.w3.org/1999/xlink" x="0px" y="0px"
	 viewBox="0 0 1627.09 1190.55" style="enable-background:new 0 0 1627.09 1190.55;" xml:space="preserve">
<g>
	<g>
		<path d="M853.36,478.01v74.4c0,9.2-0.35,18.65-1.05,28.35c-0.7,9.7-1.45,17.85-2.25,24.45c-0.8,6.6-1.3,10.8-1.5,12.6h1.2
			l38.1-139.8h51.9l38.4,139.5h1.2c-0.2-1.8-0.75-5.95-1.65-12.45c-0.9-6.5-1.75-14.6-2.55-24.3c-0.8-9.7-1.2-19.15-1.2-28.35v-74.4
			h60.9v206.4h-93.6l-31.2-119.1h-1.2l-30.9,119.1h-90.3v-206.4H853.36z"/>
	</g>
	<g>
		<path d="M1171.68,581.21c0,68.8-36.1,103.2-108.3,103.2h-89.4v-206.4h89.4C1135.57,478.01,1171.68,512.41,1171.68,581.21z
			 M1040.28,634.91h21.9c27.8,0,41.7-14.9,41.7-44.7v-18c0-29.8-13.9-44.7-41.7-44.7h-21.9V634.91z"/>
	</g>
</g>
<g>
</g>
<g>
</g>
<g>
</g>
<g>
</g>
<g>
</g>
<g>
</g>
</svg>
